<svg width="65" height="52" viewBox="0 0 65 52" fill="none" xmlns="http://www.w3.org/2000/svg">
<g clip-path="url(#clip0_18_414)">
<rect x="0.37085" y="0.580566" width="64.1768" height="50.9229" rx="5.58059" fill="#3563E9"/>
<path d="M1.05467 48.7131L-3.26496 38.2495H1.05467H5.3743L9.69392 48.7131L5.3743 59.1767H1.05467H-3.26496L1.05467 48.7131Z" fill="white" fill-opacity="0.06"/>
<path d="M16.7782 48.7131L12.4586 38.2495H16.7782H21.0978L25.4174 48.7131L21.0978 59.1767H16.7782H12.4586L16.7782 48.7131Z" fill="white" fill-opacity="0.06"/>
<path d="M32.5017 48.7131L28.1821 38.2495H32.5017H36.8213L41.141 48.7131L36.8213 59.1767H32.5017H28.1821L32.5017 48.7131Z" fill="white" fill-opacity="0.06"/>
<path d="M48.2251 48.7131L43.9055 38.2495H48.2251H52.5447L56.8643 48.7131L52.5447 59.1767H48.2251H43.9055L48.2251 48.7131Z" fill="white" fill-opacity="0.06"/>
<path d="M63.9485 48.7131L59.6289 38.2495H63.9485H68.2681L72.5877 48.7131L68.2681 59.1767H63.9485H59.6289L63.9485 48.7131Z" fill="white" fill-opacity="0.06"/>
<path d="M-6.89337 27.7859L-11.213 17.3223H-6.89337H-2.57374L1.74589 27.7859L-2.57374 38.2495H-6.89337H-11.213L-6.89337 27.7859Z" fill="white" fill-opacity="0.06"/>
<path d="M8.83002 27.7859L4.51039 17.3223H8.83002H13.1496L17.4693 27.7859L13.1496 38.2495H8.83002H4.51039L8.83002 27.7859Z" fill="white" fill-opacity="0.06"/>
<path d="M24.5535 27.7859L20.2339 17.3223H24.5535H28.8732L33.1928 27.7859L28.8732 38.2495H24.5535H20.2339L24.5535 27.7859Z" fill="white" fill-opacity="0.06"/>
<path d="M40.2771 27.7859L35.9574 17.3223H40.2771H44.5967L48.9163 27.7859L44.5967 38.2495H40.2771H35.9574L40.2771 27.7859Z" fill="white" fill-opacity="0.06"/>
<path d="M56.0004 27.7859L51.6808 17.3223H56.0004H60.3201L64.6397 27.7859L60.3201 38.2495H56.0004H51.6808L56.0004 27.7859Z" fill="white" fill-opacity="0.06"/>
<path d="M0.881983 6.85863L-3.43764 -3.60498H0.881983H5.20161L9.52124 6.85863L5.20161 17.3222H0.881983H-3.43764L0.881983 6.85863Z" fill="white" fill-opacity="0.06"/>
<path d="M16.6054 6.85863L12.2857 -3.60498H16.6054H20.925L25.2446 6.85863L20.925 17.3222H16.6054H12.2857L16.6054 6.85863Z" fill="white" fill-opacity="0.06"/>
<path d="M32.3289 6.85863L28.0093 -3.60498H32.3289H36.6485L40.9681 6.85863L36.6485 17.3222H32.3289H28.0093L32.3289 6.85863Z" fill="white" fill-opacity="0.06"/>
<path d="M48.0523 6.85863L43.7327 -3.60498H48.0523H52.3719L56.6915 6.85863L52.3719 17.3222H48.0523H43.7327L48.0523 6.85863Z" fill="white" fill-opacity="0.06"/>
<path d="M63.7758 6.85863L59.4562 -3.60498H63.7758H68.0954L72.4151 6.85863L68.0954 17.3222H63.7758H59.4562L63.7758 6.85863Z" fill="white" fill-opacity="0.06"/>
</g>
<defs>
<clipPath id="clip0_18_414">
<rect x="0.37085" y="0.580566" width="64.1768" height="50.9229" rx="5.58059" fill="white"/>
</clipPath>
</defs>
</svg>
