<svg width="65" height="52" viewBox="0 0 65 52" fill="none" xmlns="http://www.w3.org/2000/svg">
<g clip-path="url(#clip0_18_455)">
<rect x="0.76712" y="0.580566" width="64.1768" height="50.9229" rx="5.58059" fill="#347928"/>
<path d="M1.45073 48.7131L-2.8689 38.2495H1.45073H5.77036L10.09 48.7131L5.77036 59.1767H1.45073H-2.8689L1.45073 48.7131Z" fill="white" fill-opacity="0.06"/>
<path d="M17.1744 48.7131L12.8547 38.2495H17.1744H21.494L25.8136 48.7131L21.494 59.1767H17.1744H12.8547L17.1744 48.7131Z" fill="white" fill-opacity="0.06"/>
<path d="M32.8978 48.7131L28.5781 38.2495H32.8978H37.2174L41.537 48.7131L37.2174 59.1767H32.8978H28.5781L32.8978 48.7131Z" fill="white" fill-opacity="0.06"/>
<path d="M48.6211 48.7131L44.3015 38.2495H48.6211H52.9408L57.2604 48.7131L52.9408 59.1767H48.6211H44.3015L48.6211 48.7131Z" fill="white" fill-opacity="0.06"/>
<path d="M64.3447 48.7131L60.025 38.2495H64.3447H68.6643L72.9839 48.7131L68.6643 59.1767H64.3447H60.025L64.3447 48.7131Z" fill="white" fill-opacity="0.06"/>
<path d="M-6.4973 27.7859L-10.8169 17.3223H-6.4973H-2.17767L2.14196 27.7859L-2.17767 38.2495H-6.4973H-10.8169L-6.4973 27.7859Z" fill="white" fill-opacity="0.06"/>
<path d="M9.22609 27.7859L4.90646 17.3223H9.22609H13.5457L17.8653 27.7859L13.5457 38.2495H9.22609H4.90646L9.22609 27.7859Z" fill="white" fill-opacity="0.06"/>
<path d="M24.9496 27.7859L20.63 17.3223H24.9496H29.2692L33.5889 27.7859L29.2692 38.2495H24.9496H20.63L24.9496 27.7859Z" fill="white" fill-opacity="0.06"/>
<path d="M40.6731 27.7859L36.3535 17.3223H40.6731H44.9927L49.3124 27.7859L44.9927 38.2495H40.6731H36.3535L40.6731 27.7859Z" fill="white" fill-opacity="0.06"/>
<path d="M56.3965 27.7859L52.0769 17.3223H56.3965H60.7161L65.0358 27.7859L60.7161 38.2495H56.3965H52.0769L56.3965 27.7859Z" fill="white" fill-opacity="0.06"/>
<path d="M1.27803 6.85863L-3.0416 -3.60498H1.27803H5.59766L9.91729 6.85863L5.59766 17.3222H1.27803H-3.0416L1.27803 6.85863Z" fill="white" fill-opacity="0.06"/>
<path d="M17.0014 6.85863L12.6818 -3.60498H17.0014H21.321L25.6407 6.85863L21.321 17.3222H17.0014H12.6818L17.0014 6.85863Z" fill="white" fill-opacity="0.06"/>
<path d="M32.725 6.85863L28.4053 -3.60498H32.725H37.0446L41.3642 6.85863L37.0446 17.3222H32.725H28.4053L32.725 6.85863Z" fill="white" fill-opacity="0.06"/>
<path d="M48.4485 6.85863L44.1288 -3.60498H48.4485H52.7681L57.0877 6.85863L52.7681 17.3222H48.4485H44.1288L48.4485 6.85863Z" fill="white" fill-opacity="0.06"/>
<path d="M64.1719 6.85863L59.8522 -3.60498H64.1719H68.4915L72.8111 6.85863L68.4915 17.3222H64.1719H59.8522L64.1719 6.85863Z" fill="white" fill-opacity="0.06"/>
<path d="M27.7475 38.0555C27.674 38.0555 27.6045 38.0514 27.5309 38.0391C27.0241 37.9697 26.5826 37.6713 26.3292 37.2298L19.8181 25.8384C19.3685 25.0536 19.6423 24.0563 20.4271 23.6067C21.2119 23.1571 22.2092 23.431 22.6588 24.2157L28.1031 33.7474L48.172 13.6172C48.8096 12.9796 49.8437 12.9755 50.4854 13.6131C51.1231 14.2508 51.1272 15.2849 50.4895 15.9266L28.9819 37.4996L28.9043 37.5773C28.5936 37.8879 28.1767 38.0555 27.7475 38.0555Z" fill="white" stroke="white" stroke-width="0.697574"/>
</g>
<defs>
<clipPath id="clip0_18_455">
<rect x="0.76712" y="0.580566" width="64.1768" height="50.9229" rx="5.58059" fill="white"/>
</clipPath>
</defs>
</svg>
