<svg width="65" height="52" viewBox="0 0 65 52" fill="none" xmlns="http://www.w3.org/2000/svg">
<g clip-path="url(#clip0_19_452)">
<rect x="0.123802" y="0.321533" width="64.0985" height="50.8607" rx="5.57378" fill="#F7AF19"/>
<path d="M0.806801 48.3952L-3.50755 37.9443H0.806801H5.12116L9.43551 48.3952L5.12116 58.846H0.806801H-3.50755L0.806801 48.3952Z" fill="white" fill-opacity="0.06"/>
<path d="M16.5111 48.3952L12.1967 37.9443H16.5111H20.8254L25.1398 48.3952L20.8254 58.846H16.5111H12.1967L16.5111 48.3952Z" fill="white" fill-opacity="0.06"/>
<path d="M32.2154 48.3952L27.901 37.9443H32.2154H36.5297L40.8441 48.3952L36.5297 58.846H32.2154H27.901L32.2154 48.3952Z" fill="white" fill-opacity="0.06"/>
<path d="M47.9195 48.3952L43.6052 37.9443H47.9195H52.2339L56.5482 48.3952L52.2339 58.846H47.9195H43.6052L47.9195 48.3952Z" fill="white" fill-opacity="0.06"/>
<path d="M63.6238 48.3952L59.3095 37.9443H63.6238H67.9382L72.2525 48.3952L67.9382 58.846H63.6238H59.3095L63.6238 48.3952Z" fill="white" fill-opacity="0.06"/>
<path d="M-7.13155 27.4936L-11.4459 17.0427H-7.13155H-2.8172L1.49716 27.4936L-2.8172 37.9444H-7.13155H-11.4459L-7.13155 27.4936Z" fill="white" fill-opacity="0.06"/>
<path d="M8.57261 27.4936L4.25826 17.0427H8.57261H12.887L17.2013 27.4936L12.887 37.9444H8.57261H4.25826L8.57261 27.4936Z" fill="white" fill-opacity="0.06"/>
<path d="M24.2769 27.4936L19.9625 17.0427H24.2769H28.5912L32.9056 27.4936L28.5912 37.9444H24.2769H19.9625L24.2769 27.4936Z" fill="white" fill-opacity="0.06"/>
<path d="M39.9812 27.4936L35.6668 17.0427H39.9812H44.2955L48.6099 27.4936L44.2955 37.9444H39.9812H35.6668L39.9812 27.4936Z" fill="white" fill-opacity="0.06"/>
<path d="M55.6853 27.4936L51.371 17.0427H55.6853H59.9997L64.3141 27.4936L59.9997 37.9444H55.6853H51.371L55.6853 27.4936Z" fill="white" fill-opacity="0.06"/>
<path d="M0.634251 6.59195L-3.6801 -3.85889H0.634251H4.94861L9.26296 6.59195L4.94861 17.0428H0.634251H-3.6801L0.634251 6.59195Z" fill="white" fill-opacity="0.06"/>
<path d="M16.3385 6.59195L12.0242 -3.85889H16.3385H20.6529L24.9672 6.59195L20.6529 17.0428H16.3385H12.0242L16.3385 6.59195Z" fill="white" fill-opacity="0.06"/>
<path d="M32.0427 6.59195L27.7283 -3.85889H32.0427H36.3571L40.6714 6.59195L36.3571 17.0428H32.0427H27.7283L32.0427 6.59195Z" fill="white" fill-opacity="0.06"/>
<path d="M47.747 6.59195L43.4326 -3.85889H47.747H52.0613L56.3757 6.59195L52.0613 17.0428H47.747H43.4326L47.747 6.59195Z" fill="white" fill-opacity="0.06"/>
<path d="M63.4511 6.59195L59.1368 -3.85889H63.4511H67.7655L72.0799 6.59195L67.7655 17.0428H63.4511H59.1368L63.4511 6.59195Z" fill="white" fill-opacity="0.06"/>
<path d="M32.1731 15.606V39.3816" stroke="white" stroke-width="1.39344" stroke-linecap="round" stroke-linejoin="round"/>
<path d="M38.8791 22.9214C38.8791 22.3209 38.7552 21.7264 38.5145 21.1716C38.2737 20.6169 37.9209 20.1129 37.4761 19.6883C37.0313 19.2637 36.5033 18.9269 35.9221 18.6972C35.341 18.4674 34.7181 18.3491 34.0891 18.3491H29.7781C28.5078 18.3491 27.2894 18.8308 26.3911 19.6883C25.4928 20.5458 24.9882 21.7087 24.9882 22.9214C24.9882 24.134 25.4928 25.297 26.3911 26.1544C27.2894 27.0119 28.5078 27.4936 29.7781 27.4936H35.0471C36.3175 27.4936 37.5358 27.9753 38.4341 28.8328C39.3324 29.6902 39.8371 30.8532 39.8371 32.0658C39.8371 33.2785 39.3324 34.4414 38.4341 35.2989C37.5358 36.1564 36.3175 36.6381 35.0471 36.6381H29.2991C28.0288 36.6381 26.8104 36.1564 25.9121 35.2989C25.0138 34.4414 24.5092 33.2785 24.5092 32.0658" stroke="white" stroke-width="1.39344" stroke-linecap="round" stroke-linejoin="round"/>
</g>
<defs>
<clipPath id="clip0_19_452">
<rect x="0.123802" y="0.321533" width="64.0985" height="50.8607" rx="5.57378" fill="white"/>
</clipPath>
</defs>
</svg>
