<svg width="65" height="52" viewBox="0 0 65 52" fill="none" xmlns="http://www.w3.org/2000/svg">
<g clip-path="url(#clip0_19_492)">
<rect x="0.829193" y="0.321533" width="64.0985" height="50.8607" rx="5.57378" fill="#EB5B21"/>
<path d="M1.51208 48.3952L-2.80228 37.9443H1.51208H5.82643L10.1408 48.3952L5.82643 58.846H1.51208H-2.80228L1.51208 48.3952Z" fill="white" fill-opacity="0.06"/>
<path d="M17.2164 48.3952L12.902 37.9443H17.2164H21.5307L25.8451 48.3952L21.5307 58.846H17.2164H12.902L17.2164 48.3952Z" fill="white" fill-opacity="0.06"/>
<path d="M32.9205 48.3952L28.6062 37.9443H32.9205H37.2349L41.5492 48.3952L37.2349 58.846H32.9205H28.6062L32.9205 48.3952Z" fill="white" fill-opacity="0.06"/>
<path d="M48.6248 48.3952L44.3105 37.9443H48.6248H52.9392L57.2535 48.3952L52.9392 58.846H48.6248H44.3105L48.6248 48.3952Z" fill="white" fill-opacity="0.06"/>
<path d="M64.3291 48.3952L60.0148 37.9443H64.3291H68.6435L72.9578 48.3952L68.6435 58.846H64.3291H60.0148L64.3291 48.3952Z" fill="white" fill-opacity="0.06"/>
<path d="M-6.42628 27.4936L-10.7406 17.0427H-6.42628H-2.11192L2.20243 27.4936L-2.11192 37.9444H-6.42628H-10.7406L-6.42628 27.4936Z" fill="white" fill-opacity="0.06"/>
<path d="M9.27789 27.4936L4.96353 17.0427H9.27789H13.5922L17.9066 27.4936L13.5922 37.9444H9.27789H4.96353L9.27789 27.4936Z" fill="white" fill-opacity="0.06"/>
<path d="M24.9822 27.4936L20.6678 17.0427H24.9822H29.2965L33.6109 27.4936L29.2965 37.9444H24.9822H20.6678L24.9822 27.4936Z" fill="white" fill-opacity="0.06"/>
<path d="M40.6865 27.4936L36.3721 17.0427H40.6865H45.0008L49.3152 27.4936L45.0008 37.9444H40.6865H36.3721L40.6865 27.4936Z" fill="white" fill-opacity="0.06"/>
<path d="M56.3906 27.4936L52.0763 17.0427H56.3906H60.705L65.0193 27.4936L60.705 37.9444H56.3906H52.0763L56.3906 27.4936Z" fill="white" fill-opacity="0.06"/>
<path d="M1.33953 6.59195L-2.97482 -3.85889H1.33953H5.65389L9.96824 6.59195L5.65389 17.0428H1.33953H-2.97482L1.33953 6.59195Z" fill="white" fill-opacity="0.06"/>
<path d="M17.0437 6.59195L12.7293 -3.85889H17.0437H21.358L25.6724 6.59195L21.358 17.0428H17.0437H12.7293L17.0437 6.59195Z" fill="white" fill-opacity="0.06"/>
<path d="M32.748 6.59195L28.4336 -3.85889H32.748H37.0623L41.3767 6.59195L37.0623 17.0428H32.748H28.4336L32.748 6.59195Z" fill="white" fill-opacity="0.06"/>
<path d="M48.4523 6.59195L44.1379 -3.85889H48.4523H52.7666L57.081 6.59195L52.7666 17.0428H48.4523H44.1379L48.4523 6.59195Z" fill="white" fill-opacity="0.06"/>
<path d="M64.1564 6.59195L59.8421 -3.85889H64.1564H68.4708L72.7851 6.59195L68.4708 17.0428H64.1564H59.8421L64.1564 6.59195Z" fill="white" fill-opacity="0.06"/>
<path d="M45.2669 20.5266H19.793C19.2519 20.5266 18.8133 20.9165 18.8133 21.3975V33.5902C18.8133 34.0711 19.2519 34.4611 19.793 34.4611H45.2669C45.808 34.4611 46.2467 34.0711 46.2467 33.5902V21.3975C46.2467 20.9165 45.808 20.5266 45.2669 20.5266Z" stroke="white" stroke-width="1.39344" stroke-linecap="round" stroke-linejoin="round"/>
<path d="M32.5301 30.9775C34.6946 30.9775 36.4492 29.4178 36.4492 27.4939C36.4492 25.5699 34.6946 24.0103 32.5301 24.0103C30.3657 24.0103 28.6111 25.5699 28.6111 27.4939C28.6111 29.4178 30.3657 30.9775 32.5301 30.9775Z" stroke="white" stroke-width="1.39344" stroke-linecap="round" stroke-linejoin="round"/>
<path d="M38.4086 20.5266L46.2468 26.6229" stroke="white" stroke-width="1.39344" stroke-linecap="round" stroke-linejoin="round"/>
<path d="M38.4086 34.4611L46.2468 28.3647" stroke="white" stroke-width="1.39344" stroke-linecap="round" stroke-linejoin="round"/>
<path d="M26.6514 20.5266L18.8133 26.6229" stroke="white" stroke-width="1.39344" stroke-linecap="round" stroke-linejoin="round"/>
<path d="M26.6514 34.4611L18.8133 28.3647" stroke="white" stroke-width="1.39344" stroke-linecap="round" stroke-linejoin="round"/>
</g>
<defs>
<clipPath id="clip0_19_492">
<rect x="0.829193" y="0.321533" width="64.0985" height="50.8607" rx="5.57378" fill="white"/>
</clipPath>
</defs>
</svg>
