<svg width="64" height="52" viewBox="0 0 64 52" fill="none" xmlns="http://www.w3.org/2000/svg">
<g clip-path="url(#clip0_19_418)">
<rect x="0.27655" y="0.985352" width="63.0705" height="50.0451" rx="5.48439" fill="#9B1211"/>
<path d="M0.948471 48.2881L-3.29669 38.0049H0.948471H5.19363L9.4388 48.2881L5.19363 58.5713H0.948471H-3.29669L0.948471 48.2881Z" fill="white" fill-opacity="0.06"/>
<path d="M16.4009 48.2881L12.1558 38.0049H16.4009H20.6461L24.8913 48.2881L20.6461 58.5713H16.4009H12.1558L16.4009 48.2881Z" fill="white" fill-opacity="0.06"/>
<path d="M31.8534 48.2881L27.6082 38.0049H31.8534H36.0985L40.3437 48.2881L36.0985 58.5713H31.8534H27.6082L31.8534 48.2881Z" fill="white" fill-opacity="0.06"/>
<path d="M47.3057 48.2881L43.0605 38.0049H47.3057H51.5509L55.796 48.2881L51.5509 58.5713H47.3057H43.0605L47.3057 48.2881Z" fill="white" fill-opacity="0.06"/>
<path d="M62.7579 48.2881L58.5128 38.0049H62.7579H67.0031L71.2482 48.2881L67.0031 58.5713H62.7579H58.5128L62.7579 48.2881Z" fill="white" fill-opacity="0.06"/>
<path d="M-6.86263 27.7217L-11.1078 17.4385H-6.86263H-2.61746L1.6277 27.7217L-2.61746 38.0049H-6.86263H-11.1078L-6.86263 27.7217Z" fill="white" fill-opacity="0.06"/>
<path d="M8.58971 27.7217L4.34454 17.4385H8.58971H12.8349L17.08 27.7217L12.8349 38.0049H8.58971H4.34454L8.58971 27.7217Z" fill="white" fill-opacity="0.06"/>
<path d="M24.0422 27.7217L19.797 17.4385H24.0422H28.2873L32.5325 27.7217L28.2873 38.0049H24.0422H19.797L24.0422 27.7217Z" fill="white" fill-opacity="0.06"/>
<path d="M39.4945 27.7217L35.2493 17.4385H39.4945H43.7397L47.9848 27.7217L43.7397 38.0049H39.4945H35.2493L39.4945 27.7217Z" fill="white" fill-opacity="0.06"/>
<path d="M54.9469 27.7217L50.7018 17.4385H54.9469H59.1921L63.4373 27.7217L59.1921 38.0049H54.9469H50.7018L54.9469 27.7217Z" fill="white" fill-opacity="0.06"/>
<path d="M0.778488 7.1553L-3.46667 -3.12793H0.778488H5.02365L9.26882 7.1553L5.02365 17.4385H0.778488H-3.46667L0.778488 7.1553Z" fill="white" fill-opacity="0.06"/>
<path d="M16.231 7.1553L11.9858 -3.12793H16.231H20.4762L24.7213 7.1553L20.4762 17.4385H16.231H11.9858L16.231 7.1553Z" fill="white" fill-opacity="0.06"/>
<path d="M31.6835 7.1553L27.4383 -3.12793H31.6835H35.9286L40.1738 7.1553L35.9286 17.4385H31.6835H27.4383L31.6835 7.1553Z" fill="white" fill-opacity="0.06"/>
<path d="M47.1359 7.1553L42.8907 -3.12793H47.1359H51.3811L55.6262 7.1553L51.3811 17.4385H47.1359H42.8907L47.1359 7.1553Z" fill="white" fill-opacity="0.06"/>
<path d="M62.5882 7.1553L58.3431 -3.12793H62.5882H66.8334L71.0786 7.1553L66.8334 17.4385H62.5882H58.3431L62.5882 7.1553Z" fill="white" fill-opacity="0.06"/>
<path fill-rule="evenodd" clip-rule="evenodd" d="M32.1546 13.3252C35.7955 13.3252 38.753 16.1324 38.753 19.6025C38.753 23.0725 35.7955 25.8797 32.1546 25.8797C28.5138 25.8797 25.5562 23.0725 25.5562 19.6025C25.5562 16.1324 28.5138 13.3252 32.1546 13.3252ZM44.1275 34.4493C43.8319 31.2021 40.9882 28.6981 37.5533 28.6981H26.7559L26.4743 28.704L26.2038 28.721C22.7963 29.001 20.1575 31.7013 20.1575 34.9754V37.5375L20.1655 37.672C20.2348 38.2454 20.7419 38.6905 21.3572 38.6905H42.952L43.0919 38.6828C43.6885 38.6161 44.1517 38.1288 44.1517 37.5375V34.9754L44.1455 34.7072L44.1275 34.4493ZM26.7833 31.0038L37.5533 31.0041L37.7844 31.01C39.927 31.1201 41.6483 32.7513 41.7478 34.7882L41.7526 35.0024L41.7523 36.3846H22.557V34.9754L22.5632 34.7574C22.6791 32.7365 24.3974 31.1034 26.5566 31.0084L26.7833 31.0038ZM27.9557 19.6025C27.9557 17.4124 29.8324 15.6311 32.1547 15.6311C34.4771 15.6311 36.3537 17.4124 36.3537 19.6025C36.3537 21.7926 34.4771 23.5738 32.1547 23.5738C29.8324 23.5738 27.9557 21.7926 27.9557 19.6025Z" fill="white"/>
<path fill-rule="evenodd" clip-rule="evenodd" d="M32.1546 13.3252C35.7955 13.3252 38.753 16.1324 38.753 19.6025C38.753 23.0725 35.7955 25.8797 32.1546 25.8797C28.5138 25.8797 25.5562 23.0725 25.5562 19.6025C25.5562 16.1324 28.5138 13.3252 32.1546 13.3252ZM44.1275 34.4493C43.8319 31.2021 40.9882 28.6981 37.5533 28.6981H26.7559L26.4743 28.704L26.2038 28.721C22.7963 29.001 20.1575 31.7013 20.1575 34.9754V37.5375L20.1655 37.672C20.2348 38.2454 20.7419 38.6905 21.3572 38.6905H42.952L43.0919 38.6828C43.6885 38.6161 44.1517 38.1288 44.1517 37.5375V34.9754L44.1455 34.7072L44.1275 34.4493ZM26.7833 31.0038L37.5533 31.0041L37.7844 31.01C39.927 31.1201 41.6483 32.7513 41.7478 34.7882L41.7526 35.0024L41.7523 36.3846H22.557V34.9754L22.5632 34.7574C22.6791 32.7365 24.3974 31.1034 26.5566 31.0084L26.7833 31.0038ZM27.9557 19.6025C27.9557 17.4124 29.8324 15.6311 32.1547 15.6311C34.4771 15.6311 36.3537 17.4124 36.3537 19.6025C36.3537 21.7926 34.4771 23.5738 32.1547 23.5738C29.8324 23.5738 27.9557 21.7926 27.9557 19.6025Z" fill="white"/>
</g>
<defs>
<clipPath id="clip0_19_418">
<rect x="0.27655" y="0.985352" width="63.0705" height="50.0451" rx="5.48439" fill="white"/>
</clipPath>
</defs>
</svg>
