<svg width="366" height="226" viewBox="0 0 366 226" fill="none" xmlns="http://www.w3.org/2000/svg">
<path d="M252.4 177.1C293.49 177.1 326.8 143.79 326.8 102.7C326.8 61.6098 293.49 28.2998 252.4 28.2998C211.31 28.2998 178 61.6098 178 102.7C178 143.79 211.31 177.1 252.4 177.1Z" fill="#3563E9"/>
<path d="M1 119C1 55.0002 52.9 3.2002 116.8 3.2002C180.8 3.2002 232.6 55.1002 232.6 119V452.6" stroke="#192342" stroke-miterlimit="10"/>
<path d="M17.9 119C17.9 64.4 62.3 20 116.9 20C171.5 20 215.9 64.4 215.9 119V452.6" stroke="#192342" stroke-miterlimit="10"/>
<path d="M34.7999 119C34.7999 73.6999 71.5999 36.8999 116.9 36.8999C162.2 36.8999 199 73.6999 199 119V452.6" stroke="#192342" stroke-miterlimit="10"/>
<path d="M51.7 452.6V119C51.7 83.0998 80.9 53.7998 116.9 53.7998C152.9 53.7998 182.1 82.9998 182.1 119V452.6" stroke="#192342" stroke-miterlimit="10"/>
<path d="M68.6 452.6V119C68.6 92.4002 90.3 70.7002 116.9 70.7002C143.5 70.7002 165.2 92.4002 165.2 119V452.6" stroke="#192342" stroke-miterlimit="10"/>
<path d="M252.3 151.9C253.846 151.9 255.1 150.646 255.1 149.1C255.1 147.553 253.846 146.3 252.3 146.3C250.754 146.3 249.5 147.553 249.5 149.1C249.5 150.646 250.754 151.9 252.3 151.9Z" fill="#F3F6FF"/>
<path d="M292 149.1C292 150.7 290.7 151.9 289.2 151.9C287.6 151.9 286.4 150.6 286.4 149.1C286.4 147.5 287.7 146.3 289.2 146.3C290.7 146.3 292 147.6 292 149.1Z" fill="#F3F6FF"/>
<path d="M326 151.9C327.546 151.9 328.8 150.646 328.8 149.1C328.8 147.553 327.546 146.3 326 146.3C324.454 146.3 323.2 147.553 323.2 149.1C323.2 150.646 324.454 151.9 326 151.9Z" fill="#192342"/>
<path d="M362.8 151.9C364.346 151.9 365.6 150.646 365.6 149.1C365.6 147.553 364.346 146.3 362.8 146.3C361.254 146.3 360 147.553 360 149.1C360 150.646 361.254 151.9 362.8 151.9Z" fill="#192342"/>
<path d="M252.3 188.5C253.846 188.5 255.1 187.246 255.1 185.7C255.1 184.154 253.846 182.9 252.3 182.9C250.754 182.9 249.5 184.154 249.5 185.7C249.5 187.246 250.754 188.5 252.3 188.5Z" fill="#192342"/>
<path d="M292 185.7C292 187.3 290.7 188.5 289.2 188.5C287.6 188.5 286.4 187.2 286.4 185.7C286.4 184.1 287.7 182.9 289.2 182.9C290.7 182.8 292 184.1 292 185.7Z" fill="#192342"/>
<path d="M326 188.5C327.546 188.5 328.8 187.246 328.8 185.7C328.8 184.154 327.546 182.9 326 182.9C324.454 182.9 323.2 184.154 323.2 185.7C323.2 187.246 324.454 188.5 326 188.5Z" fill="#192342"/>
<path d="M362.8 188.5C364.346 188.5 365.6 187.246 365.6 185.7C365.6 184.154 364.346 182.9 362.8 182.9C361.254 182.9 360 184.154 360 185.7C360 187.246 361.254 188.5 362.8 188.5Z" fill="#192342"/>
<path d="M252.3 225C253.846 225 255.1 223.746 255.1 222.2C255.1 220.654 253.846 219.4 252.3 219.4C250.754 219.4 249.5 220.654 249.5 222.2C249.5 223.746 250.754 225 252.3 225Z" fill="#192342"/>
<path d="M292 222.2C292 223.8 290.7 225 289.2 225C287.6 225 286.4 223.7 286.4 222.2C286.4 220.6 287.7 219.4 289.2 219.4C290.7 219.3 292 220.6 292 222.2Z" fill="#192342"/>
<path d="M326 225C327.546 225 328.8 223.746 328.8 222.2C328.8 220.654 327.546 219.4 326 219.4C324.454 219.4 323.2 220.654 323.2 222.2C323.2 223.746 324.454 225 326 225Z" fill="#192342"/>
<path d="M362.8 225C364.346 225 365.6 223.746 365.6 222.2C365.6 220.654 364.346 219.4 362.8 219.4C361.254 219.4 360 220.654 360 222.2C360 223.746 361.254 225 362.8 225Z" fill="#192342"/>
<path d="M150.9 6.39999C150.9 9.89999 148.1 12.8 144.5 12.8C140.9 12.8 138.1 9.99999 138.1 6.39999C138.1 2.89999 140.9 0 144.5 0C148.1 0 150.9 2.89999 150.9 6.39999Z" fill="#3563E9"/>
</svg>
